HIERARCHY
ROOT Bip001_Pelvis
{
  OFFSET -1.09727 91.6061 -4.11886
  CHANNELS 6 Xposition Yposition Zposition Zrotation Xrotation Yrotation
  JOINT Bip001_Spine
  {
    OFFSET 1.44608e-005 10.4157 -0.0118244
    CHANNELS 3 Zrotation Xrotation Yrotation
    JOINT Bip001_L_Thigh
    {
      OFFSET 11.2582 -10.4157 0.0118432
      CHANNELS 3 Zrotation Xrotation Yrotation
      JOINT Bip001_L_Calf
      {
        OFFSET -0.720717 -44.8687 0.366937
        CHANNELS 3 Zrotation Xrotation Yrotation
        JOINT Bip001_L_Foot
        {
          OFFSET -0.664439 -41.3745 -3.62995
          CHANNELS 3 Zrotation Xrotation Yrotation
          JOINT Bip001_L_Toe0
          {
            OFFSET 0.0541047 -10.4146 13.4033
            CHANNELS 3 Zrotation Xrotation Yrotation
            End Site
            {
              OFFSET -1.04503e-005 0 7.70137
            }
          }
        }
      }
    }
    JOINT Bip001_R_Thigh
    {
      OFFSET -11.2582 -10.4156 0.0118122
      CHANNELS 3 Zrotation Xrotation Yrotation
      JOINT Bip001_R_Calf
      {
        OFFSET 0.72059 -44.8687 0.36676
        CHANNELS 3 Zrotation Xrotation Yrotation
        JOINT Bip001_R_Foot
        {
          OFFSET 0.664321 -41.3745 -3.62979
          CHANNELS 3 Zrotation Xrotation Yrotation
          JOINT Bip001_R_Toe0
          {
            OFFSET -0.05417 -10.4146 13.4033
            CHANNELS 3 Zrotation Xrotation Yrotation
            End Site
            {
              OFFSET -1.04873e-005 0 7.70137
            }
          }
        }
      }
    }
    JOINT Bip001_Spine1
    {
      OFFSET 1.90638e-005 14.8539 1.10727
      CHANNELS 3 Zrotation Xrotation Yrotation
      JOINT Bip001_Spine2
      {
        OFFSET 2.28934e-005 14.7848 -1.7233
        CHANNELS 3 Zrotation Xrotation Yrotation
        JOINT Bip001_Neck
        {
          OFFSET 2.24514e-005 15.6905 -0.498826
          CHANNELS 3 Zrotation Xrotation Yrotation
          JOINT Bip001_L_Clavicle
          {
            OFFSET 6.17691 -0.000591152 0.00852867
            CHANNELS 3 Zrotation Xrotation Yrotation
            JOINT Bip001_L_UpperArm
            {
              OFFSET 11.773 -0.0611878 0.00197697
              CHANNELS 3 Zrotation Xrotation Yrotation
              JOINT Bip001_L_Forearm
              {
                OFFSET 26.4515 0.0817566 -2.1958
                CHANNELS 3 Zrotation Xrotation Yrotation
                JOINT Bip001_L_Hand
                {
                  OFFSET 32.8677 0.156744 1.67112
                  CHANNELS 3 Zrotation Xrotation Yrotation
                  JOINT Bip001_L_Finger0
                  {
                    OFFSET 6.16268 -2.25225 6.01675
                    CHANNELS 3 Zrotation Xrotation Yrotation
                    End Site
                    {
                      OFFSET 4.30499 -1.46662 0.618149
                    }
                  }
                  JOINT Bip001_L_Finger1
                  {
                    OFFSET 11.2957 -0.718373 -0.201963
                    CHANNELS 3 Zrotation Xrotation Yrotation
                    End Site
                    {
                      OFFSET 6.31952 -0.405162 -0.0802303
                    }
                  }
                }
              }
            }
          }
          JOINT Bip001_R_Clavicle
          {
            OFFSET -6.17691 -0.000574027 0.00851165
            CHANNELS 3 Zrotation Xrotation Yrotation
            JOINT Bip001_R_UpperArm
            {
              OFFSET -11.773 -0.0611516 0.00194365
              CHANNELS 3 Zrotation Xrotation Yrotation
              JOINT Bip001_R_Forearm
              {
                OFFSET -26.4514 0.0822336 -2.19736
                CHANNELS 3 Zrotation Xrotation Yrotation
                JOINT Bip001_R_Hand
                {
                  OFFSET -32.8677 0.156816 1.67144
                  CHANNELS 3 Zrotation Xrotation Yrotation
                  JOINT Bip001_R_Finger0
                  {
                    OFFSET -6.1627 -2.25224 6.01672
                    CHANNELS 3 Zrotation Xrotation Yrotation
                    End Site
                    {
                      OFFSET -4.30499 -1.46661 0.618135
                    }
                  }
                  JOINT Bip001_R_Finger1
                  {
                    OFFSET -11.2958 -0.718343 -0.201994
                    CHANNELS 3 Zrotation Xrotation Yrotation
                    End Site
                    {
                      OFFSET -6.31952 -0.405146 -0.0802477
                    }
                  }
                }
              }
            }
          }
          JOINT Bip001_Head
          {
            OFFSET 1.11782e-005 11.4912 2.09908
            CHANNELS 3 Zrotation Xrotation Yrotation
            End Site
            {
              OFFSET 2.95144e-005 21.2823 -2.83069e-005
            }
          }
        }
      }
    }
  }
}
MOTION
Frames:	7
Frame Time:	0.0333333
-1.13259 91.5572 -4.25283 -0.925111 1.0979 9.36915 0.249656 -0.242353 -0.0814176 3.88702 -15.6386 2.28652 0.120956 32.014 -0.312046 -4.17825 -10.3829 3.80478 1.00565e-007 2.47412e-008 -1.68752e-006 -1.13172 -15.1175 1.30419 -0.254471 35.3899 -2.0755 0.560125 -19.0765 -9.41545 2.1335e-007 2.02765e-009 3.21861e-009 0.543429 -0.50172 -0.13812 0.545123 -0.501669 -0.146416 -2.16214 -8.92441 1.2613 -26.2178 14.9214 -12.2024 -43.042 22.0843 4.29518 -1.95902 0.401177 -19.6543 -0.5735 15.4167 -1.75893 -1.59028e-015 3.18055e-015 1.59028e-015 8.82782e-032 3.18056e-015 -1.59028e-015 27.2772 12.7543 8.74609 50.4202 47.9492 -6.06715 -1.57225 -2.00178 20.6986 -6.33459 -14.3223 -10.0222 6.36111e-015 -3.18055e-015 -1.59028e-015 6.36111e-015 0 -3.18055e-015 1.43236 1.25738 0.106513 
-1.12536 91.5557 -4.24607 -0.924923 1.09793 9.35938 0.249656 -0.242353 -0.0814176 3.89166 -15.6128 2.30744 0.120858 31.9987 -0.311994 -4.17914 -10.358 3.80888 1.00565e-007 2.47412e-008 -1.68752e-006 -1.13367 -15.1209 1.32025 -0.253681 35.4077 -2.07596 0.588796 -19.1327 -9.36661 2.1335e-007 2.02765e-009 3.21861e-009 0.543429 -0.50172 -0.13812 0.545123 -0.501669 -0.146416 -2.13807 -8.89763 1.26121 -26.2406 14.8968 -12.2058 -43.0402 22.0625 4.29451 -1.95902 0.401177 -19.6543 -0.319398 15.4158 -1.87334 -0 -6.36111e-015 -0 -3.18055e-015 -3.18056e-015 1.59028e-015 27.2457 12.7538 8.76252 50.4202 47.9492 -6.06715 -1.57212 -2.00173 20.7024 -6.34064 -14.3508 -10.0268 -1.59028e-015 -3.18055e-015 1.59028e-015 -1.59028e-015 0 -0 1.39123 1.26482 0.106513 
-1.12828 91.5542 -4.23658 -0.935571 1.09799 9.34185 0.249656 -0.242353 -0.0814176 3.90315 -15.6031 2.31481 0.120831 31.9946 -0.31198 -4.16963 -10.3563 3.83242 1.00565e-007 2.47412e-008 -1.68752e-006 -1.1326 -15.1258 1.29354 -0.247332 35.4213 -2.07631 0.622669 -19.1996 -9.27283 2.1335e-007 2.02765e-009 3.21861e-009 0.543429 -0.50172 -0.13812 0.545123 -0.501669 -0.146416 -2.13435 -8.9023 1.26123 -26.2448 14.9002 -12.2101 -43.0394 22.0528 4.29422 -1.95902 0.401177 -19.6543 -0.0144581 15.4144 -2.03237 1.76556e-031 6.36111e-015 -1.59028e-015 -1.59028e-015 3.18056e-015 -1.59028e-015 27.242 12.7554 8.76279 50.4329 47.9373 -6.10274 -1.56939 -2.0007 20.7804 -6.34746 -14.3087 -10.0819 8.82781e-032 -3.18055e-015 1.59028e-015 0 0 -1.59028e-015 1.38143 1.29291 0.106514 
-1.13014 91.5643 -4.23045 -0.957635 1.10343 9.33793 0.249656 -0.242353 -0.0814176 3.92278 -15.5937 2.32536 0.116127 31.978 -0.330434 -4.19871 -10.3775 3.82067 1.00565e-007 2.47412e-008 -1.68752e-006 -1.10839 -15.1098 1.30163 -0.245136 35.3724 -2.05496 0.561103 -19.0934 -9.37003 2.1335e-007 2.02765e-009 3.21861e-009 0.543429 -0.50172 -0.13812 0.545123 -0.501669 -0.146416 -2.12901 -8.88088 1.26115 -26.254 14.8814 -12.2111 -43.039 22.0474 4.29406 -1.95902 0.401177 -19.6543 0.289726 15.4288 -2.16587 -4.77083e-015 3.18055e-015 -1.59028e-015 -6.36111e-015 -3.18056e-015 -0 27.232 12.7559 8.77188 50.465 47.8902 -6.05081 -1.57368 -2.00232 20.6576 -6.35576 -14.2809 -10.0207 1.59028e-015 3.18055e-015 -1.59028e-015 -3.18055e-015 3.18056e-015 -0 1.35808 1.27809 0.106514 
-1.13084 91.5575 -4.22251 -0.960531 1.10864 9.33581 0.249656 -0.242353 -0.0814176 3.93227 -15.594 2.35501 0.121181 31.9889 -0.285555 -4.22912 -10.3862 3.76306 1.00565e-007 2.47412e-008 -1.68752e-006 -1.09818 -15.117 1.34604 -0.242863 35.403 -2.06034 0.58915 -19.1526 -9.37614 2.1335e-007 2.02765e-009 3.21861e-009 0.543429 -0.50172 -0.13812 0.545123 -0.501669 -0.146416 -2.11797 -8.87616 1.26114 -26.2601 14.8684 -12.2125 -43.0379 22.0336 4.29364 -1.95902 0.401177 -19.6543 0.57603 15.4515 -2.31695 -0 -3.18055e-015 -0 -1.59028e-015 3.18056e-015 3.18055e-015 27.2184 12.7514 8.77869 50.4777 47.8887 -6.0936 -1.57141 -2.00146 20.7224 -6.37001 -14.2779 -10.06 0 6.36111e-015 -0 1.59028e-015 9.54167e-015 -0 1.4064 1.35743 0.0830658 
-1.13161 91.5604 -4.2131 -0.957816 1.11379 9.33401 0.249656 -0.242353 -0.0814176 3.91992 -15.5774 2.30944 0.120521 31.9667 -0.289138 -4.19604 -10.3464 3.84047 1.00565e-007 2.47412e-008 -1.68752e-006 -1.09779 -15.1048 1.37058 -0.243451 35.3861 -2.06704 0.593281 -19.1217 -9.38147 2.1335e-007 2.02765e-009 3.21861e-009 0.543429 -0.50172 -0.13812 0.545123 -0.501669 -0.146416 -2.1621 -8.88311 1.26116 -26.2158 14.8854 -12.2146 -43.0461 22.0509 4.31194 -1.95879 0.401097 -19.6864 0.868599 15.447 -2.43812 3.18055e-015 -6.36111e-015 -0 -0 -3.18056e-015 -0 27.2493 12.7693 8.76809 50.5049 47.8271 -6.10424 -1.57072 -2.0012 20.7422 -6.35877 -14.1973 -10.067 1.59028e-015 -3.18055e-015 -0 3.18055e-015 -3.18056e-015 -1.59028e-015 1.37128 1.28828 0.0945431 
-1.1315 91.5619 -4.20524 -0.954993 1.11845 9.33018 0.249656 -0.242353 -0.0814176 3.94955 -15.5698 2.40547 0.113517 31.9629 -0.352836 -4.21495 -10.4066 3.77338 1.00565e-007 2.47412e-008 -1.68752e-006 -1.09293 -15.0932 1.37903 -0.22552 35.3735 -1.9117 0.570261 -19.1879 -9.51509 2.1335e-007 2.02765e-009 3.21861e-009 0.543429 -0.50172 -0.13812 0.545123 -0.501669 -0.146416 -2.13927 -8.83983 1.26101 -26.2416 14.8463 -12.2113 -43.066 22.092 4.35497 -1.95826 0.401521 -19.7352 1.2566 15.3676 -2.53706 1.76556e-031 3.18055e-015 -3.18055e-015 -1.59028e-015 3.18056e-015 -1.59028e-015 27.2127 12.7381 8.79185 50.529 47.77 -6.0971 -1.57087 -2.00126 20.738 -6.35158 -14.1519 -10.0712 0 3.18055e-015 -0 0 0 -0 1.15841 1.53104 0.141918 
